<svg width="147" height="20" viewBox="0 0 147 20" fill="none" xmlns="http://www.w3.org/2000/svg">
<path d="M17.1542 5.55332C15.0448 5.55332 13.4527 6.5996 12.5373 8.04829V7.60563C12.5373 6.1167 11.9801 5.79477 11.3433 5.79477C10.9851 5.79477 10.7065 5.95573 10.7065 5.99598V18.8732C10.7065 19.5573 11.0647 19.7586 11.5423 19.7586H11.7413C12.2189 19.7586 12.5771 19.5573 12.5771 18.8732V10.2616C13.3731 8.53119 14.9652 7.36418 17.0746 7.36418C19.3831 7.36418 20.7363 9.05433 20.7363 11.7907V18.9135C20.7363 19.5976 21.0945 19.7988 21.5721 19.7988H21.7711C22.2488 19.7988 22.607 19.5976 22.607 18.9135V11.67C22.5274 8.00805 20.7363 5.55332 17.1542 5.55332ZM1.27363 5.47284C0.437811 5.47284 0 5.87525 0 6.72032C0 7.52515 0.437811 7.96781 1.19403 7.96781C2.02985 7.96781 2.46766 7.56539 2.46766 6.72032C2.46766 5.87525 2.06965 5.47284 1.27363 5.47284ZM1.31343 9.4165H1.11443C0.636816 9.4165 0.278607 9.61771 0.278607 10.3018V18.8732C0.278607 19.5573 0.636816 19.7586 1.11443 19.7586H1.31343C1.79104 19.7586 2.14925 19.5573 2.14925 18.8732V10.3018C2.14925 9.61771 1.79104 9.4165 1.31343 9.4165ZM37.3731 17.3843C36.8955 17.9879 36.2189 18.3903 35.2637 18.3903C33.7512 18.3903 33.2338 17.4245 33.2338 15.4125V7.60563H36.8557C37.5323 7.60563 37.7313 7.36419 37.7313 6.84105V6.68008C37.7313 6.19718 37.5323 5.91549 36.8557 5.91549H33.2338V3.54125C33.2338 2.85714 32.9154 2.65594 32.4378 2.65594H32.2388C31.7612 2.65594 31.403 2.85714 31.403 3.54125V5.91549H30.1294C29.4527 5.91549 29.2537 6.15694 29.2537 6.68008V6.84105C29.2537 7.32394 29.4527 7.60563 30.1294 7.60563H31.403V15.6137C31.403 18.4708 32.5572 20 35.1841 20C36.9751 20 37.9701 19.0744 37.9701 18.3099C37.9701 17.5855 37.4129 17.3038 37.3731 17.3843ZM145.433 15.2917C144.716 16.9819 143.403 18.3099 140.816 18.3099C137.871 18.3099 135.682 15.9356 135.682 12.7565C135.682 9.53722 137.871 7.24346 140.816 7.24346C143.403 7.24346 144.716 8.57143 145.433 10.2616C145.473 10.3823 146.667 10.2213 146.667 9.37626C146.667 8.12877 144.796 5.55332 140.816 5.55332C136.836 5.55332 133.811 8.57143 133.811 12.7565C133.811 16.9416 136.796 20 140.816 20C144.796 20 146.667 17.4245 146.667 16.1771C146.667 15.3722 145.512 15.171 145.433 15.2917ZM50.7861 5.55332C46.8458 5.55332 43.9403 8.65191 43.9403 12.837C43.9403 17.0624 46.806 20 50.9851 20C54.6866 20 56.7164 17.9074 56.7164 16.9416C56.7164 16.0563 55.6816 15.7746 55.6418 15.8551C54.8458 17.1429 53.6517 18.3099 50.9851 18.3099C48.0796 18.3099 45.9702 16.2173 45.8109 13.2797H56.398C56.9552 13.2797 57.1542 13.159 57.1542 12.6358V12.4748C57.1144 8.32998 54.607 5.55332 50.7861 5.55332ZM45.8507 11.7103C46.2488 9.09457 48.199 7.24346 50.7463 7.24346C53.2935 7.24346 54.9254 9.01409 55.1244 11.7103H45.8507ZM110.527 5.55332C108.418 5.55332 106.866 6.5996 105.91 8.04829V7.60563C105.91 6.1167 105.353 5.79477 104.716 5.79477C104.358 5.79477 104.08 5.95573 104.08 5.99598V18.8732C104.08 19.5573 104.438 19.7586 104.915 19.7586H105.114C105.592 19.7586 105.95 19.5573 105.95 18.8732V10.2616C106.746 8.53119 108.338 7.36418 110.448 7.36418C112.756 7.36418 114.109 9.05433 114.109 11.7907V18.9135C114.109 19.5976 114.468 19.7988 114.945 19.7988H115.144C115.622 19.7988 115.98 19.5976 115.98 18.9135V11.67C115.9 8.00805 114.109 5.55332 110.527 5.55332ZM90.3881 5.55332C88.2786 5.55332 86.7264 6.5996 85.7711 8.08853V1.81087C85.7711 0.321932 85.1741 0 84.5373 0C84.1791 0 83.9005 0.160966 83.9005 0.201207V18.8732C83.9005 19.5573 84.2587 19.7586 84.7363 19.7586H84.9353C85.4129 19.7586 85.7711 19.5573 85.7711 18.8732V12.0322C85.7711 9.17505 87.5622 7.32394 90.2687 7.32394C92.5373 7.32394 93.9304 8.97384 93.9304 11.7505V18.8732C93.9304 19.5573 94.2886 19.7586 94.7662 19.7586H94.9652C95.4428 19.7586 95.801 19.5573 95.801 18.8732V11.6298C95.7612 8.00805 93.9702 5.55332 90.3881 5.55332ZM70.6468 7.24346C73.2338 7.24346 74.5473 8.57143 75.2637 10.2616C75.3035 10.3823 76.4975 10.2213 76.4975 9.37626C76.4975 8.12877 74.6269 5.55332 70.6468 5.55332C66.6667 5.55332 63.6418 8.57143 63.6418 12.7565C63.6418 16.9416 66.6269 20 70.6468 20C74.6269 20 76.4975 17.4245 76.4975 16.1771C76.4975 15.332 75.3433 15.171 75.2637 15.2917C74.5473 16.9819 73.2338 18.3099 70.6468 18.3099C67.7015 18.3099 65.5522 15.9356 65.5522 12.7565C65.5522 9.53722 67.7413 7.24346 70.6468 7.24346Z" fill="#15171C"/>
<path d="M125.216 15.8149H125.416C125.893 15.8149 126.252 15.6137 126.252 14.9296V6.35821C126.252 5.67411 125.893 5.4729 125.416 5.4729H125.216C124.738 5.4729 124.381 5.67411 124.381 6.35821V14.9296C124.381 15.6137 124.698 15.8149 125.216 15.8149ZM125.336 17.3039C124.5 17.3039 124.062 17.7063 124.062 18.5514C124.062 19.3964 124.461 19.7988 125.257 19.7988C126.092 19.7988 126.53 19.3964 126.53 18.5514C126.53 17.7063 126.092 17.3039 125.336 17.3039Z" fill="#CF1839"/>
</svg>
